<svg width="16" height="16" viewBox="0 0 16 16" fill="none" xmlns="http://www.w3.org/2000/svg">
<g clip-path="url(#clip0_355_1602)">
<mask id="mask0_355_1602" style="mask-type:alpha" maskUnits="userSpaceOnUse" x="0" y="0" width="16" height="16">
<path d="M16 0H0V16H16V0Z" fill="white"/>
</mask>
<g mask="url(#mask0_355_1602)">
<path d="M12.2667 6.39998V6.22185C12.2667 5.43678 11.6299 4.79998 10.8448 4.79998H9.59998C9.17563 4.79998 8.76866 4.96855 8.4686 5.26861C8.16855 5.56867 7.99998 5.97564 7.99998 6.39998C7.99998 6.82433 8.16855 7.2313 8.4686 7.53135C8.76866 7.83141 9.17563 7.99998 9.59998 7.99998H10.6667C11.091 7.99998 11.498 8.16855 11.798 8.46861C12.0981 8.76867 12.2667 9.17564 12.2667 9.59998C12.2667 10.0243 12.0981 10.4313 11.798 10.7314C11.498 11.0314 11.091 11.2 10.6667 11.2H9.59998C9.17563 11.2 8.76866 11.0314 8.4686 10.7314C8.16855 10.4313 7.99998 10.0243 7.99998 9.59998M5.86664 4.26665V9.88158C5.86663 10.2778 5.75625 10.6663 5.54788 11.0033C5.33951 11.3404 5.04138 11.6127 4.68691 11.7899L3.73331 12.2666M1.59998 11.2V4.79998L7.99998 1.06665L14.4 4.79998V11.2L7.99998 14.9333L1.59998 11.2Z" stroke="#484848" stroke-width="1.4"/>
</g>
</g>
<defs>
<clipPath id="clip0_355_1602">
<rect width="16" height="16" fill="white"/>
</clipPath>
</defs>
</svg>
