<svg width="16" height="16" viewBox="0 0 16 16" fill="none" xmlns="http://www.w3.org/2000/svg">
<g clip-path="url(#clip0_355_1593)">
<mask id="mask0_355_1593" style="mask-type:alpha" maskUnits="userSpaceOnUse" x="0" y="0" width="16" height="16">
<path d="M16 0H0V16H16V0Z" fill="white"/>
</mask>
<g mask="url(#mask0_355_1593)">
<path d="M15.4667 8.08965C15.4667 9.85712 12.1237 11.2896 7.99999 11.2896C3.87626 11.2896 0.533325 9.85712 0.533325 8.08965C0.533325 6.32218 3.87626 4.88965 7.99999 4.88965C12.1237 4.88965 15.4667 6.32218 15.4667 8.08965Z" stroke="#484848" stroke-width="1.4"/>
<path d="M4.44378 14.6549C5.99792 15.4976 8.84911 13.2395 10.814 9.61387C12.7777 5.9872 13.1105 2.36587 11.5564 1.52427C10.0022 0.6816 7.15098 2.93974 5.18618 6.56534C3.22245 10.192 2.88965 13.8133 4.44378 14.6549Z" stroke="#484848" stroke-width="1.4"/>
<path d="M11.5564 14.6549C10.0022 15.4976 7.15098 13.2395 5.18618 9.61387C3.22245 5.9872 2.88965 2.36587 4.44378 1.52427C5.99792 0.6816 8.84911 2.93974 10.814 6.56534C12.7777 10.192 13.1105 13.8133 11.5564 14.6549Z" stroke="#484848" stroke-width="1.4"/>
<path d="M6.93335 8.08962C6.93335 8.37251 7.04573 8.64382 7.24577 8.84386C7.44581 9.0439 7.71712 9.15628 8.00002 9.15628C8.28291 9.15628 8.55422 9.0439 8.75426 8.84386C8.9543 8.64382 9.06668 8.37251 9.06668 8.08962C9.06668 7.80672 8.9543 7.53541 8.75426 7.33537C8.55422 7.13533 8.28291 7.02295 8.00002 7.02295C7.71712 7.02295 7.44581 7.13533 7.24577 7.33537C7.04573 7.53541 6.93335 7.80672 6.93335 8.08962Z" stroke="#484848" stroke-width="1.4"/>
</g>
</g>
<defs>
<clipPath id="clip0_355_1593">
<rect width="16" height="16" fill="white"/>
</clipPath>
</defs>
</svg>
