<svg width="16" height="14" viewBox="0 0 16 14" xmlns="http://www.w3.org/2000/svg">
    <path
        d="M2.1665 13.5415V5.77067L0.645671 6.93734L0.229004 6.37484L7.99984 0.416504L15.7915 6.354L15.354 6.93734L13.8332 5.74984V13.5415H2.1665ZM2.89567 12.8123H13.104V5.20817L7.99984 1.33317L2.89567 5.229V12.8123ZM2.89567 12.8123H13.104H2.89567ZM4.729 9.31234C4.56234 9.31234 4.41303 9.24636 4.28109 9.11442C4.14914 8.98248 4.08317 8.83317 4.08317 8.6665C4.08317 8.49984 4.14914 8.35053 4.28109 8.21859C4.41303 8.08664 4.56234 8.02067 4.729 8.02067C4.88178 8.02067 5.02762 8.08664 5.1665 8.21859C5.30539 8.35053 5.37484 8.49984 5.37484 8.6665C5.37484 8.83317 5.30539 8.98248 5.1665 9.11442C5.02762 9.24636 4.88178 9.31234 4.729 9.31234ZM7.99984 9.31234C7.83317 9.31234 7.68386 9.24636 7.55192 9.11442C7.41998 8.98248 7.354 8.83317 7.354 8.6665C7.354 8.49984 7.41998 8.35053 7.55192 8.21859C7.68386 8.08664 7.83317 8.02067 7.99984 8.02067C8.15261 8.02067 8.29845 8.08664 8.43734 8.21859C8.57623 8.35053 8.64567 8.49984 8.64567 8.6665C8.64567 8.83317 8.57623 8.98248 8.43734 9.11442C8.29845 9.24636 8.15261 9.31234 7.99984 9.31234ZM11.2707 9.31234C11.104 9.31234 10.9547 9.24636 10.8228 9.11442C10.6908 8.98248 10.6248 8.83317 10.6248 8.6665C10.6248 8.49984 10.6908 8.35053 10.8228 8.21859C10.9547 8.08664 11.104 8.02067 11.2707 8.02067C11.4234 8.02067 11.5693 8.08664 11.7082 8.21859C11.8471 8.35053 11.9165 8.49984 11.9165 8.6665C11.9165 8.83317 11.8471 8.98248 11.7082 9.11442C11.5693 9.24636 11.4234 9.31234 11.2707 9.31234Z" />
</svg>