<svg width="12" height="12" viewBox="0 0 12 12" fill="none" xmlns="http://www.w3.org/2000/svg">
<g clip-path="url(#clip0_92_2846)">
<path d="M6.35852 0.623257C6.32542 0.556483 6.27433 0.500282 6.21101 0.46099C6.14768 0.421698 6.07464 0.400879 6.00012 0.400879C5.92559 0.400879 5.85255 0.421698 5.78922 0.46099C5.7259 0.500282 5.67481 0.556483 5.64172 0.623257L4.00412 3.94086L0.342516 4.47286C0.268636 4.48359 0.199233 4.51478 0.142158 4.5629C0.0850833 4.61102 0.0426147 4.67416 0.0195569 4.74516C-0.00350092 4.81617 -0.00622776 4.89221 0.0116849 4.96468C0.0295975 5.03715 0.0674347 5.10317 0.120916 5.15526L2.77052 7.73766L2.14492 11.3849C2.13237 11.4584 2.14061 11.5339 2.16873 11.603C2.19684 11.6721 2.2437 11.7319 2.30402 11.7757C2.36434 11.8196 2.43571 11.8457 2.51009 11.8511C2.58446 11.8565 2.65887 11.8411 2.72492 11.8065L6.00012 10.0841L9.27532 11.8065C9.34136 11.8411 9.41577 11.8565 9.49015 11.8511C9.56452 11.8457 9.63589 11.8196 9.69621 11.7757C9.75653 11.7319 9.80339 11.6721 9.83151 11.603C9.85962 11.5339 9.86787 11.4584 9.85532 11.3849L9.22972 7.73686L11.8793 5.15526C11.9328 5.10317 11.9706 5.03715 11.9885 4.96468C12.0065 4.89221 12.0037 4.81617 11.9807 4.74516C11.9576 4.67416 11.9151 4.61102 11.8581 4.5629C11.801 4.51478 11.7316 4.48359 11.6577 4.47286L7.99612 3.94086L6.35852 0.624057V0.623257Z" fill="#FFE01B"/>
</g>
<defs>
<clipPath id="clip0_92_2846">
<rect width="12" height="12" fill="white"/>
</clipPath>
</defs>
</svg>
