<svg width="8" height="10" viewBox="0 0 8 10" fill="none" xmlns="http://www.w3.org/2000/svg">
<path d="M4.00012 9.40006L3.73452 9.69926L4.00012 9.93526L4.26572 9.69926L4.00012 9.40006ZM4.00012 0.600059L4.27212 0.306459L4.00572 0.0600586L3.73372 0.300859L4.00012 0.600059ZM4.26572 9.69926L7.86572 6.49926L7.33452 5.90086L3.73452 9.10086L4.26572 9.69926ZM4.26572 9.10086L0.665722 5.90086L0.134521 6.49926L3.73452 9.69926L4.26572 9.10086ZM3.73452 0.300859L0.134521 3.50086L0.665722 4.09926L4.26572 0.899259L3.73452 0.300859ZM3.72812 0.892859L7.17852 4.09286L7.72252 3.50646L4.27212 0.306459L3.72812 0.893659V0.892859Z" fill="#484848"/>
</svg>
